{"title":"Brooklyn's Finest.(2009).H263.1080p[)(]DD+ 5.1-(FR,US).mkv","uid":11252367,"size":11194061051,"categoryP":"video","categoryS":"hd___movies","magnet":"?xt=urn:btih:72df91cc2ee3b5feba903299b9ad2031d1acffd6&amp;dn=Brooklyn%27s+Finest.%282009%29.H263.1080p%5B%29%28%5DDD%2B+5.1-%28FR%2CUS%29.mkv&amp;tr=udp%3A%2F%2Ftracker.openbittorrent.com%3A80&amp;tr=udp%3A%2F%2Fopen.demonii.com%3A1337&amp;tr=udp%3A%2F%2Ftracker.coppersurfer.tk%3A6969&amp;tr=udp%3A%2F%2Fexodus.desync.com%3A6969","seeders":0,"leechers":1,"uploader":"Tyr3ll","files":-1,"time":1413852254,"description":"&quot;L'elite de Brooklyn&quot; aka &quot;Brooklyn's Finest&quot; (2009) Dolby Digital Edition\n\n\nFormat : 1080p @ 16/9\n\nVideo codec : H263\n\nContener : mkv\n\nReencoding at 10000 kbps from custom BD25 from Original BD50 of this movie.\n\n\nFinal purpose : Master Dubbing as rip as Dolby Digital plus Edition\n\nLanguage : (US) English and French\n\nSub : none\n\nAudio : DD+ aka E-Ac3 5.1/6-channels/48 Khz/32 bits/768 Kbps\n\nQuality : Normal\n\nFinal Size : 10,4 GB\n\nSee imdb right here : &lt;a href=&quot;\nhttp://www.imdb.com/title/tt1210042/&quot; rel=&quot;nofollow&quot; target=&quot;_NEW&quot;&gt;\nhttp://www.imdb.com/title/tt1210042/&lt;/a&gt;\n\n-------------------------------------------------\n\nSee bellow for more details :\n\nGeneral\nComplete name                  : Brooklyn's Finest.(2009).H263.1080p[)(]DD+ 5.1-(FR,US).mkv\n\nFormat                         : Matroska\nFormat version                 : Version 4 / Version 2\nFile size                      : 10.4 GiB\nDuration                       : 2h 12mn\nOverall bit rate               : 11.3 Mbps\nEncoded date                   : UTC 2014-10-20 20:28:49\nWriting application            : Lavf56.7.104\nWriting library                : Lavf56.7.104\n\nVideo\nID                             : 1\nFormat                         : H.263\nCodec ID                       : V_MS/VFW/FOURCC / H263\nDuration                       : 2h 12mn\nBit rate                       : 9 495 Kbps\nWidth                          : 1 920 pixels\nHeight                         : 1 080 pixels\nDisplay aspect ratio           : 16:9\nFrame rate mode                : Constant\nFrame rate                     : 23.976 fps\nBit depth                      : 8 bits\nCompression mode               : Lossy\nBits/(Pixel*Frame)             : 0.191\nStream size                    : 8.79 GiB (84%)\nWriting library                : Lavc56.3.100 h263p\nDefault                        : Yes\nForced                         : No\n\nAudio #1\nID                             : 2\nFormat                         : E-AC-3\nFormat/Info                    : Audio Coding 3\nFormat settings, Endianness    : Big\nCodec ID                       : A_EAC3\nDuration                       : 2h 12mn\nBit rate mode                  : Constant\nBit rate                       : 768 Kbps\nChannel(s)                     : 6 channels\nChannel positions              : Front: L C R, Side: L R, LFE\nSampling rate                  : 48.0 KHz\nBit depth                      : 32 bits\nCompression mode               : Lossy\nStream size                    : 728 MiB (7%)\nWriting library                : Lavc56.3.100 eac3\nLanguage                       : French\nDefault                        : Yes\nForced                         : No\n\nAudio #2\nID                             : 3\nFormat                         : E-AC-3\nFormat/Info                    : Audio Coding 3\nFormat settings, Endianness    : Big\nCodec ID                       : A_EAC3\nDuration                       : 2h 12mn\nBit rate mode                  : Constant\nBit rate                       : 768 Kbps\nChannel(s)                     : 6 channels\nChannel positions              : Front: L C R, Side: L R, LFE\nSampling rate                  : 48.0 KHz\nBit depth                      : 32 bits\nCompression mode               : Lossy\nStream size                    : 728 MiB (7%)\nWriting library                : Lavc56.3.100 eac3\nLanguage                       : English\nDefault                        : Yes\nForced                         : No\n\nMenu\n Chapters : 17\n\n\n\nEnjoy and seed, please.\n\n\nBest regards","torrent":{"xt":"urn:btih:72df91cc2ee3b5feba903299b9ad2031d1acffd6","amp;dn":"Brooklyn%27s+Finest.%282009%29.H263.1080p%5B%29%28%5DDD%2B+5.1-%28FR%2CUS%29.mkv","amp;tr":["udp%3A%2F%2Ftracker.openbittorrent.com%3A80","udp%3A%2F%2Fopen.demonii.com%3A1337","udp%3A%2F%2Ftracker.coppersurfer.tk%3A6969","udp%3A%2F%2Fexodus.desync.com%3A6969"],"infoHash":"72df91cc2ee3b5feba903299b9ad2031d1acffd6","infoHashBuffer":{"type":"Buffer","data":[114,223,145,204,46,227,181,254,186,144,50,153,185,173,32,49,209,172,255,214]},"announce":[],"urlList":[]}}